<svg xmlns="http://www.w3.org/2000/svg" viewBox="0 0 463.34 93.28"><defs><style>.cls-1{fill:#00285e;}.cls-2{fill:#deb407;}</style></defs><g id="Layer_2" data-name="Layer 2"><g id="Layer_1-2" data-name="Layer 1"><path class="cls-1" d="M180.1,23.32h.27v2.32l-1.84.25c-3.11.45-3.11,1-3.11,8V59.34c0,7,0,7.58,3.1,8l1.85.25V70H160.83V67.62l.24,0,1.41-.17.26,0c3-.45,3-1,3-8V47.46H145.25V59.41c0,6.94,0,7.51,3,8l1.91.25V70H130.66V67.62l.25,0c1.32-.16,1.05-.12,1.15-.13l.52-.08c3-.45,3-1,3-8V33.92c0-7,0-7.58-3-8l-1.92-.25V23.32H150.2v2.32l-.24,0-1.56.19-.11,0c-3,.45-3,1-3,8v9.92h20.54V33.92c0-7,0-7.58-3-8l-1.92-.25V23.32Z"/><path class="cls-1" d="M257.62,23.32a15.67,15.67,0,0,1,3.43-.42h.3c0,.06,18.49,34.52,18.49,34.52l0,.08s17.28-34.14,17.28-34.15.12,0,.12,0a12.44,12.44,0,0,1,3.55-.42h.26c0,.08,2.11,38.31,2.11,38.31.28,5.33,1.21,5.72,3.12,6l2.33.38V70H288.41V67.62l2.52-.38c2.65-.47,3.36-.6,3.36-4l0-1.14-.86-23h-.09L279.1,69.21s-.1,0-.1,0a12.19,12.19,0,0,1-2.71.71l-.2,0c0-.06-15.51-31.11-15.51-31.11l-.81,23.22,0,1.48c0,3,.71,3.15,3.36,3.68l2.54.38V70H249.86V67.63l2-.39c1.88-.39,2.8-.78,3.14-5.4,0,0,2.34-37.74,2.39-38.47Z"/><path class="cls-1" d="M403.08,23.32h.22l0,.21a51.06,51.06,0,0,1,.85,11.37v.24l-3,.42c0-.06-.05-.25-.05-.25-1.8-8.8-4-8.8-11.18-8.8H385.2V43.92h4.47c6.26,0,7-.09,7.34-2.77l.38-2.68h2.33V52.91H397.4c0-.07-.39-2.47-.39-2.47-.45-2.84-1.2-2.84-7.06-2.84H385.2V65.75h0a29.4,29.4,0,0,0,6.75,1c9.66,0,10.86-4.62,12.13-9.51l.3-1.15,3,.59c0,.06,0,.25,0,.25a49.08,49.08,0,0,1-2.32,12.84s-.05.14-.06.19H370.61V67.62l1.89-.25.26,0c2.81-.53,2.81-.53,2.81-8V33.92c0-7.34,0-7.33-2.67-7.94l-.39-.07-1.9-.27V23.32Z"/><path class="cls-1" d="M225.42,23.31h16v2.35l-1.58.45c-1.85.5-2.74.94-2.81,5.59l-.43,17.11-.1,3.27C235.85,64.62,229.67,71,218.13,71c-14.39,0-21.38-6.52-21.38-19.94V33.85c0-7,0-7.52-3-8l-1.92-.24V23.31h19.54v2.33l-1.91.24c-3,.45-3,1-3,8V54.69c0,7.49,5.18,12.51,12.89,12.51,5,0,10.71-2.91,11.75-11.08a58.67,58.67,0,0,0,.38-7.2l-.29-18.11c0-4.46-.53-4.52-3.62-5l-2-.23Z"/><path class="cls-1" d="M346.71,44.45l-.17,0,.16-.06c5.93-2,8.94-5.78,8.94-11.13,0-6.58-5.13-9.91-15.22-9.91H319.34v2.32l1.91.25.24,0c2.8.53,2.8.53,2.8,7.85V59.34c0,7.39,0,7.39-2.74,8l-.33.07s-1.81.22-1.88.24V70h18.42c13.16,0,20.11-4.64,20.11-13.41C357.87,47.32,349.33,45,346.71,44.45ZM333.92,27h0a12.32,12.32,0,0,1,3.26-.44c5.34,0,8.8,3.29,8.8,8.39,0,7.74-5.23,8.74-9.78,8.74h-2.31Zm5.38,39.78a15.73,15.73,0,0,1-5.35-1h0V46.83h2.73c8.55,0,11.6,5.53,11.6,10.69C348.25,63.47,345.07,66.74,339.3,66.74Z"/><path class="cls-1" d="M462.91,67.56a5.49,5.49,0,0,1-4.1-1.76c-4.63-5.84-9.49-15.12-11-18.45l0,0,0,0c2.65-1.26,8.81-5,8.81-12,0-10.58-8.95-11.93-16.75-11.93H419.5v2.32l1.85.25c3.11.45,3.11.88,3.11,8V59.34c0,7,0,7.58-3,8l-.29,0-1.39.16-.24,0V70H439V67.62l-1.92-.25c-3-.45-3-1-3-8V50h2c3.37,0,4.09,1.54,5.52,4.61l1.22,2.51,2.65,5.17C447.23,65.84,450.16,70,457,70h6.35V67.61ZM437.23,46.77h-3.15V27h0a12.47,12.47,0,0,1,3.31-.44c5.82,0,9.58,3.84,9.58,9.79C447,38.89,447,46.77,437.23,46.77Z"/><path class="cls-1" d="M104.11,17.12a6.59,6.59,0,1,1-6.58-6.6A6.6,6.6,0,0,1,104.11,17.12Z"/><path class="cls-1" d="M22.21,59.46V24.25H32.48v26A178.06,178.06,0,0,1,55.57,34.12V11.89H65.82V28.54a161,161,0,0,1,19.39-8.19,46.66,46.66,0,1,0-76.1,54A136.12,136.12,0,0,1,22.21,59.46Z"/><path class="cls-2" d="M86.09,21.7A109.2,109.2,0,0,0,65.82,32.81V81.39H55.57V40.65c-14.14,11.93-26.66,27.52-34.46,45a46.65,46.65,0,0,0,65-64Z"/></g></g></svg>