<?xml version="1.0" encoding="UTF-8"?><svg id="Light" xmlns="http://www.w3.org/2000/svg" viewBox="0 0 200.55 60.23"><defs><style>.cls-1{fill:none;}.cls-1,.cls-2,.cls-3{stroke-width:0px;}.cls-2,.cls-4{fill:#fff;}.cls-4{stroke:#fff;stroke-miterlimit:10;}.cls-3{fill:#fdd700;}</style></defs><rect class="cls-1" width="200.55" height="60.23"/><g id="Paths"><g id="ZP"><path class="cls-4" d="m24.49,43.93v3.22c0,.27-.22.48-.48.48H3.11c-.27,0-.48-.22-.48-.48v-2.7c0-.1.03-.19.09-.27l14.46-20.83c.22-.32,0-.75-.4-.75H3.21c-.27,0-.48-.22-.48-.48v-3.24c0-.27.22-.48.48-.48h20.33c.27,0,.48.22.48.48v2.6c0,.1-.03.19-.08.27l-14.44,20.96c-.22.32,0,.75.4.75h14.11c.27,0,.48.22.48.48Z"/><path class="cls-4" d="m59.45,19.58c1.61.8,2.84,1.9,3.69,3.31.84,1.41,1.27,3.02,1.27,4.83s-.42,3.51-1.26,4.88-2.06,2.41-3.66,3.13c-1.6.72-3.53,1.08-5.78,1.08h-5.54c-.27,0-.48.22-.48.48v9.84c0,.27-.22.48-.48.48h-4.24c-.27,0-.48-.22-.48-.48v-28.28c0-.27.22-.48.48-.48h10.75c2.21,0,4.12.4,5.73,1.2Zm-1.61,11.76c.89-.87,1.34-2.06,1.34-3.58,0-.94-.19-1.8-.58-2.58-.39-.78-.99-1.41-1.81-1.89-.82-.47-1.84-.71-3.07-.71h-5.54c-.27,0-.48.22-.48.48v9.1c0,.27.22.48.48.48h5.54c1.86,0,3.24-.43,4.13-1.31Z"/></g><path class="cls-4" d="m144.81,43.93v3.22c0,.27-.22.48-.48.48h-18.22c-.27,0-.48-.22-.48-.48v-28.28c0-.27.22-.48.48-.48h18.1c.27,0,.48.22.48.48v3.24c0,.27-.22.48-.48.48h-12.9c-.27,0-.48.22-.48.48v6.97c0,.27.22.48.48.48h10.99c.27,0,.48.22.48.48v3.14c0,.27-.22.48-.48.48h-10.99c-.27,0-.48.22-.48.48v7.88c0,.27.22.48.48.48h13.02c.27,0,.48.22.48.48Z"/><path class="cls-4" d="m170.34,34.86c.83,1.21,1.25,2.61,1.25,4.21,0,2.77-.89,4.89-2.67,6.36-1.78,1.47-4.29,2.2-7.51,2.2h-10.31c-.27,0-.48-.22-.48-.48v-28.28c0-.27.22-.48.48-.48h9.56c3.29,0,5.83.65,7.59,1.96s2.65,3.29,2.65,5.96c0,1.37-.36,2.58-1.09,3.66-.54.79-1.25,1.44-2.14,1.96-.35.2-.31.7.06.85,1.11.47,1.98,1.17,2.62,2.1Zm-14.52-11.8v7.13c0,.27.22.48.48.48h4.4c1.59,0,2.83-.36,3.71-1.06.88-.71,1.32-1.71,1.32-2.99,0-1.42-.41-2.45-1.23-3.08-.82-.64-2.1-.95-3.84-.95h-4.36c-.27,0-.48.22-.48.48Zm9.29,19.19c.86-.8,1.3-1.86,1.3-3.18,0-3.05-1.59-4.58-4.78-4.58h-5.32c-.27,0-.48.22-.48.48v8c0,.27.22.48.48.48h5.1c1.61,0,2.84-.4,3.71-1.19Z"/><path class="cls-4" d="m180.33,31.54c-1.67-1.39-2.51-3.21-2.51-5.44,0-1.57.44-2.97,1.32-4.2.88-1.23,2.1-2.19,3.69-2.88,1.58-.69,3.39-1.03,5.42-1.03s3.99.4,5.59,1.2c1.6.8,2.83,1.87,3.69,3.23.77,1.22,1.19,2.55,1.27,4,.01.27-.21.5-.49.5h-4.22c-.26,0-.46-.21-.48-.46-.09-1.25-.54-2.26-1.36-3.03-.92-.87-2.27-1.31-4.07-1.31-1.69,0-2.97.37-3.85,1.1s-1.32,1.68-1.32,2.86c0,1.05.5,1.93,1.49,2.65s2.55,1.39,4.68,2.01c2.22.66,4.04,1.41,5.45,2.25,1.41.84,2.47,1.84,3.16,2.99.7,1.15,1.04,2.5,1.04,4.04,0,1.63-.43,3.05-1.29,4.26-.86,1.2-2.07,2.13-3.65,2.78-1.57.65-3.41.97-5.51.97-1.95,0-3.81-.35-5.57-1.05s-3.19-1.76-4.28-3.16c-1-1.29-1.54-2.81-1.63-4.58-.01-.27.22-.5.49-.5h4.24c.26,0,.46.21.48.46.09,1.52.66,2.67,1.7,3.44,1.14.85,2.67,1.28,4.57,1.28,1.69,0,2.98-.35,3.88-1.05.9-.7,1.35-1.63,1.35-2.81,0-.8-.17-1.48-.5-2.02s-.94-1.05-1.82-1.52c-.88-.47-2.16-.96-3.85-1.47-3.08-.95-5.46-2.12-7.13-3.52Z"/></g><path class="cls-3" d="m112.01,34.81l-1.95-3.26c-.1-.16-.33-.16-.43,0l-5.21,8.86c-.1.16-.33.16-.43,0l-5.17-8.64c-.09-.16-.32-.16-.42,0l-1.73,2.72c-.1.15-.32.15-.42,0l-1.73-2.72c-.1-.16-.33-.15-.42,0l-5.18,8.59c-.1.16-.33.16-.43,0l-5.22-8.82c-.1-.16-.33-.16-.43,0l-1.87,3.2c-.05.08-.05.17,0,.25l7.49,12.98c.09.16.33.17.43,0l7.34-12.51c.1-.16.33-.16.43,0l7.36,12.55c.1.16.33.16.43,0l7.56-12.97c.05-.08.04-.17,0-.25Z"/><path class="cls-2" d="m113.47,32.31l8.23-14.03c.1-.16-.02-.37-.21-.37l-10.39-.04c-.09,0-.17.04-.21.12l-6.47,10.41c-.1.16-.32.16-.42,0l-1.81-2.89c-.05-.08-.05-.18,0-.26l4.03-7.01c.1-.17-.03-.38-.22-.37l-6.22.12c-.09,0-.17.05-.21.12l-2.99,5.1c-.04.07-.05.16,0,.23l.87,1.79c.03.07.03.14,0,.21l-.89,2.02c-.03.07-.03.16.01.22l1.66,2.83c.19.32.65.32.84,0l.32-.52c.19-.31.65-.31.84,0l3.77,6.44c.1.16.33.16.43,0l8.13-14.07c.05-.08.13-.13.22-.12l1.74.04c.19,0,.3.2.21.37l-3.51,6.38c-.04.08-.04.17,0,.25l1.83,3.03c.1.16.33.16.43,0Z"/><path class="cls-2" d="m79.5,32.31l-8.23-14.03c-.1-.16.02-.37.21-.37l10.39-.04c.09,0,.17.04.21.12l6.47,10.41c.1.16.32.16.42,0l1.81-2.89c.05-.08.05-.18,0-.26l-4.03-7.01c-.1-.17.03-.38.22-.37l6.22.12c.09,0,.17.05.21.12l2.99,5.1c.04.07.05.16,0,.23l-.87,1.79c-.03.07-.03.14,0,.21l.89,2.02c.03.07.03.16-.01.22l-1.66,2.83c-.19.32-.65.32-.84,0l-.32-.52c-.19-.31-.65-.31-.84,0l-3.77,6.44c-.1.16-.33.16-.43,0l-8.13-14.07c-.05-.08-.13-.13-.22-.12l-1.74.04c-.19,0-.3.2-.21.37l3.51,6.38c.04.08.04.17,0,.25l-1.83,3.03c-.1.16-.33.16-.43,0Z"/><g id="I"><g id="Zip"><path class="cls-2" d="m39.11,27.46v-.99c0-.13-.11-.24-.24-.24h-5.9v-.56h-1.37c-.13,0-.24.11-.24.24v2.25c0,.13.11.24.24.24h1.37v-.7s5.9,0,5.9,0c.13,0,.24-.11.24-.24Z"/><path class="cls-2" d="m39.11,33.17v-.99c0-.13-.11-.24-.24-.24h-5.9v-.56h-1.37c-.13,0-.24.11-.24.24v2.25c0,.13.11.24.24.24h1.37v-.7s5.9,0,5.9,0c.13,0,.24-.11.24-.24Z"/><path class="cls-2" d="m39.11,44.6v-.99c0-.13-.11-.24-.24-.24h-5.9v-.56h-1.37c-.13,0-.24.11-.24.24v2.25c0,.13.11.24.24.24h1.37v-.7s5.9,0,5.9,0c.13,0,.24-.11.24-.24Z"/><path class="cls-2" d="m37.23,28.56c0-.22-.18-.4-.4-.4h-2.13v.68h-5.84c-.22,0-.4.18-.4.4v1.4c0,.22.18.4.4.4h5.83s0,.49,0,.49h2.14c.22,0,.4-.18.4-.4v-2.57Z"/><path class="cls-2" d="m37.23,34.3c0-.22-.18-.4-.4-.4h-2.13v.68h-5.84c-.22,0-.4.18-.4.4v1.4c0,.22.18.4.4.4h5.83s0,.49,0,.49h2.14c.22,0,.4-.18.4-.4v-2.57Z"/><path class="cls-2" d="m37.23,39.98c0-.22-.18-.4-.4-.4h-2.13v.68h-5.84c-.22,0-.4.18-.4.4v1.4c0,.22.18.4.4.4h5.83s0,.49,0,.49h2.14c.22,0,.4-.18.4-.4v-2.57Z"/><path class="cls-2" d="m37.16,46.61c0-.22-.18-.4-.4-.4h-2.13v.68h-5.84c-.22,0-.4.18-.4.4v.81h8.77v-1.49Z"/><path class="cls-2" d="m33.26,23.72c-1.05,0-2.03-.25-2.92-.67h-1.48c-.22,0-.4.18-.4.4v1.4c0,.22.18.4.4.4h5.83s0,.49,0,.49h2.14c.22,0,.4-.18.4-.4v-2.57c0-.11-.04-.2-.11-.27-1.09.77-2.42,1.23-3.86,1.23Z"/><path class="cls-2" d="m39.11,38.8v-.99c0-.13-.11-.24-.24-.24h-5.9v-.56h-1.37c-.13,0-.24.11-.24.24v2.25c0,.13.11.24.24.24h1.37v-.7s5.9,0,5.9,0c.13,0,.24-.11.24-.24Z"/></g><g id="Dot"><polygon class="cls-2" points="33.99 17.3 32.83 15.29 31.86 17.09 33.99 17.3"/><polygon class="cls-2" points="32.51 15.43 29.96 15.29 31.5 17.5 32.51 15.43"/><polygon class="cls-2" points="30.23 15.1 28.21 14.87 29.61 16.7 30.23 15.1"/><polygon class="cls-2" points="29.55 17 28.07 15.17 28.17 16.91 29.55 17"/><polygon class="cls-2" points="28.56 17.88 27.8 16.74 27.03 16.64 28.56 17.88"/><polygon class="cls-2" points="28.33 18.79 28.21 17.77 26.85 16.85 28.33 18.79"/><polygon class="cls-2" points="28.07 18.75 26.72 17 26.72 17.77 28.07 18.75"/><polygon class="cls-2" points="26.3 17.18 26.36 16.64 25.51 15.33 26.28 17.18 26.3 17.18"/><polygon class="cls-2" points="27.59 16.55 26.36 14.63 26.8 16.39 27.59 16.55"/><polygon class="cls-2" points="26.04 15.79 25.77 13.73 25.1 14.5 26.04 15.79"/><polygon class="cls-2" points="24.85 12.78 24.78 14.14 24.49 12.98 24.85 12.78"/><polygon class="cls-2" points="25.27 12.41 25.81 15.04 26.26 12.78 25.27 12.41"/><polygon class="cls-2" points="25.57 12.34 26.26 12.72 26.04 10.75 25.57 12.34"/><polygon class="cls-2" points="26.26 13.22 25.91 14.63 26.97 14.76 26.26 13.22"/><polygon class="cls-2" points="27.72 14.82 25.93 14.71 27.79 16.6 27.72 14.82"/><polygon class="cls-2" points="28.12 12.72 27.28 14.63 26.52 12.49 28.12 12.72"/><polygon class="cls-2" points="26.97 12.36 28.56 12.6 27.79 10.5 26.97 12.36"/><polygon class="cls-2" points="28.56 12.93 27.94 14.71 29.85 14.93 28.56 12.93"/><polygon class="cls-2" points="29.14 12.72 30.17 14.63 31.12 13.07 31.33 12.72 29.14 12.72"/><polygon class="cls-2" points="30.3 14.87 31.12 13.07 32.51 15.17 30.3 14.87"/><polygon class="cls-2" points="30.09 15.88 29.73 16.85 31.17 17.43 30.09 15.88"/><polygon class="cls-2" points="29.22 16.98 30.23 18.69 31.41 17.71 29.27 16.98 29.22 16.98"/><polygon class="cls-2" points="28.21 17.06 29.22 18.53 30.45 18.46 28.21 17.06"/><polygon class="cls-2" points="30.31 18.79 29.33 18.88 31.24 19.81 30.31 18.79"/><polygon class="cls-2" points="28.5 18.62 30.23 18.89 30.23 19.89 28.5 18.62"/><polygon class="cls-2" points="30.61 19.89 32.51 20.51 31.8 19.89 30.61 19.89"/><polygon class="cls-2" points="30.83 18.88 32.38 19.16 31.68 19.73 30.83 18.88"/><polygon class="cls-2" points="30.56 18.62 31.56 17.8 32.38 19.01 30.56 18.62"/><polygon class="cls-2" points="32.93 20.61 32.31 20.08 34.07 20.43 32.93 20.61"/><polygon class="cls-2" points="33.99 20.2 32.64 19.54 31.56 19.89 33.99 20.2"/><polygon class="cls-2" points="33.8 19.73 32.21 19.89 32.07 19.01 33.8 19.73"/><polygon class="cls-2" points="32.78 18.93 33.8 17.6 31.73 17.5 32.78 18.93"/><polygon class="cls-2" points="34.07 17.56 33.08 18.75 35.11 18.69 34.07 17.56"/><polygon class="cls-2" points="33.08 19.01 34.26 19.73 35.38 19.01 33.08 19.01"/><polygon class="cls-2" points="34.33 19.94 35.38 19.21 36.62 19.58 34.33 19.94"/><polygon class="cls-2" points="34.23 20.13 35.38 20.27 36.62 19.81 34.23 20.13"/><polygon class="cls-2" points="24.18 10.83 23.75 12.72 24.61 12.49 24.18 10.83"/><polygon class="cls-2" points="24.46 10.75 24.4 12.41 25.02 10.64 24.46 10.75"/><polygon class="cls-2" points="24.81 12.17 25.34 10.41 24.61 10.41 24.81 12.17"/><polygon class="cls-2" points="26.31 10.41 26.6 12.17 27.54 10.18 26.31 10.41"/><polygon class="cls-2" points="23.86 8.08 22.74 9.81 23.9 9.71 23.86 8.08"/><polygon class="cls-2" points="25.02 8.31 24.02 9.74 25.47 9.99 25.02 8.31"/><polygon class="cls-2" points="25.27 7.3 25.19 9.33 26.4 7.65 25.34 7.3 25.27 7.3"/><polygon class="cls-2" points="25.99 8.31 25.87 9.88 27.07 7.83 25.99 8.31"/><polygon class="cls-2" points="27.27 8.23 26.2 9.99 27.27 9.99 27.27 8.23"/><polygon class="cls-2" points="27.54 7.68 27.35 9.88 29.02 7.53 27.54 7.68"/><polygon class="cls-2" points="29.32 7.75 27.85 9.95 29.78 9.95 29.32 7.75"/><polygon class="cls-2" points="28.26 10.24 29.14 12.02 30.12 10.28 28.26 10.24"/><polygon class="cls-2" points="28.95 12.49 29.99 10.52 31.04 12.6 28.95 12.49 28.95 12.49"/><polygon class="cls-2" points="32.92 15.21 34.25 12.93 31.49 12.88 32.92 15.21"/><polygon class="cls-2" points="32.83 10.76 31.67 12.67 34.1 12.72 32.83 10.76"/><polygon class="cls-2" points="32.59 10.62 30.3 10.27 31.33 12.56 32.59 10.62"/><polygon class="cls-2" points="32.83 10.5 34.32 12.63 35.75 10.46 32.83 10.5"/><polygon class="cls-2" points="35.91 10.64 34.53 12.69 37.22 12.69 35.91 10.64"/><polygon class="cls-2" points="35.52 15.33 33.19 15.04 34.35 17.18 35.52 15.33"/><polygon class="cls-2" points="35.67 15.59 34.64 17.06 36.49 16.91 35.67 15.59"/><polygon class="cls-2" points="35.88 15.21 36.88 16.98 38.13 14.93 35.88 15.21"/><polygon class="cls-2" points="38.23 15.04 37.22 16.7 38.73 16.29 38.23 15.04"/><polygon class="cls-2" points="38.38 14.87 38.84 16.17 40 14.63 38.38 14.87"/><polygon class="cls-2" points="40.13 14.87 39.14 16.17 40.13 16.55 40.13 14.87"/><path class="cls-2" d="m40.45,14.52s-.06,1.73-.06,1.73l1.26-2-1.2.27Z"/><polygon class="cls-2" points="41.5 14.63 41.07 16.39 42.03 14.25 41.5 14.63"/><polygon class="cls-2" points="41.19 15.17 40.29 16.66 41.02 16.33 41.19 15.17"/><polygon class="cls-2" points="40.74 16.89 40 16.98 39.41 18.1 39.31 18.3 40.74 16.89"/><polygon class="cls-2" points="37.87 19.21 39.41 18.1 39.08 18.69 37.87 19.21"/><polygon class="cls-2" points="39.41 17.59 37.87 18.53 38.81 18.53 39.41 17.59"/><polygon class="cls-2" points="38.29 18.75 37.7 18.69 37.22 19.37 38.29 18.75"/><polygon class="cls-2" points="37.87 18.3 36.86 19.45 35.56 18.93 37.87 18.3"/><polygon class="cls-2" points="39.14 16.7 38.13 18.3 40.39 16.89 39.14 16.7"/><polygon class="cls-2" points="38.97 16.55 38.19 18.06 37 17.12 38.97 16.55"/><polygon class="cls-2" points="37.76 17.99 36.57 16.98 34.43 17.37 35.65 18.75 37.76 17.99"/><polygon class="cls-2" points="38.29 14.71 37.41 12.93 35.88 14.98 38.29 14.71"/><polygon class="cls-2" points="37.87 12.88 38.64 14.56 39.76 12.72 37.87 12.88"/><polygon class="cls-2" points="39.96 13.07 39.26 14.25 40.39 14.25 39.96 13.07"/><polygon class="cls-2" points="40.02 12.56 40.78 14.25 41.65 12.49 40.02 12.56"/><polygon class="cls-2" points="41.55 13.15 41.02 14.17 41.79 14.04 41.55 13.15"/><polygon class="cls-2" points="41.71 12.41 41.92 13.8 42.49 12.28 41.71 12.41"/><polygon class="cls-2" points="36.72 12.88 35.52 14.56 34.43 12.81 36.72 12.88"/><polygon class="cls-2" points="34.48 13.07 35.67 15.21 33.28 14.98 34.48 13.07"/><polygon class="cls-2" points="36.09 10.32 37.33 12.41 38.29 10.27 36.09 10.32"/><polygon class="cls-2" points="38.73 10.52 37.65 12.69 39.91 12.56 38.73 10.52"/><polygon class="cls-2" points="41.25 12.02 40.54 10.18 41.65 10.24 41.27 12.08 41.25 12.02"/><polygon class="cls-2" points="41.84 10.38 41.49 12.08 42.29 11.95 41.84 10.38"/><polygon class="cls-2" points="41.79 9.95 42.36 11.74 42.36 10.18 41.79 9.88 41.79 9.95"/><polygon class="cls-2" points="40.39 10.1 39.51 12.17 38.5 10.1 40.39 10.1"/><polygon class="cls-2" points="41.02 12.17 38.97 12.32 39.91 10.27 41.02 12.17"/><polygon class="cls-2" points="41.71 10.18 40.66 7.83 40.66 9.84 41.71 10.18"/><polygon class="cls-2" points="41.95 8.49 41.95 9.57 42.36 9.57 41.95 8.49"/><polygon class="cls-2" points="40.84 7.75 41.71 9.73 41.65 8.12 40.84 7.75"/><polygon class="cls-2" points="38.89 7.64 40.29 9.68 40.34 7.83 38.89 7.64"/><polygon class="cls-2" points="38.73 7.91 38.29 9.88 40.18 9.88 38.73 7.91"/><polygon class="cls-2" points="38.64 7.64 38.29 9.46 37.19 7.75 38.64 7.64"/><polygon class="cls-2" points="37 7.83 36.26 10.18 38.29 9.88 37 7.83"/><polygon class="cls-2" points="36.72 7.91 36.02 9.95 34.72 8.31 36.72 7.91"/><polygon class="cls-2" points="34.29 8.49 32.87 10.27 35.67 10.27 34.29 8.49"/><polygon class="cls-2" points="33.99 8.31 32.77 9.99 31.91 7.83 33.99 8.31"/><polygon class="cls-2" points="31.73 7.97 32.51 10.38 30.12 9.99 31.73 7.91 31.73 7.97"/><polygon class="cls-2" points="31.41 7.75 29.99 9.83 29.63 7.53 31.41 7.75"/><polygon class="cls-2" points="34.27 6.27 31.91 7.61 34.29 8.12 36.45 7.58 34.27 6.27"/><polygon class="cls-2" points="34.72 6.2 36.92 7.53 36.79 5.67 34.72 6.2"/><polygon class="cls-2" points="37.22 5.67 37.27 7.43 39.24 7.3 37.22 5.67"/><polygon class="cls-2" points="37.27 5.32 39.33 7.12 39.05 5.45 37.27 5.32"/><polygon class="cls-2" points="39.49 5.61 39.49 7.25 40.94 7.43 39.49 5.61"/><polygon class="cls-2" points="40.94 6.71 40.54 7.43 41.65 7.91 40.94 6.71"/><polygon class="cls-2" points="40.08 6 40.73 6.87 40.73 6.36 40.08 6"/><polygon class="cls-2" points="39.55 5.46 40.18 5.61 39.24 4.91 39.55 5.46"/><polygon class="cls-2" points="37.92 4.11 39.12 4.81 38.82 4.22 37.92 4.11"/><polygon class="cls-2" points="38.39 3.4 37.51 3.91 36.3 2.84 38.39 3.4"/><polygon class="cls-2" points="36.72 3.47 37.65 4.16 36.65 4.11 36.65 3.47 36.72 3.47"/><polygon class="cls-2" points="37.27 4.91 39.03 5.06 37.22 3.84 37.27 4.91"/><polygon class="cls-2" points="36.92 5.01 36.92 4.05 34.77 4.16 36.92 5.01"/><polygon class="cls-2" points="36.72 5.36 34.43 4.28 34.49 5.61 36.72 5.36"/><polygon class="cls-2" points="34.18 5.82 31.85 5.46 31.74 7.2 34.18 5.82"/><polygon class="cls-2" points="34.83 3.09 34.83 3.82 36.72 3.68 34.83 3.09"/><polygon class="cls-2" points="34.18 3.82 32.04 4.59 32.21 3.47 34.18 3.82"/><polygon class="cls-2" points="34.1 4.03 34.1 5.46 31.83 5.01 34.1 4.03"/><polygon class="cls-2" points="31.83 3.77 31.91 5.01 29.78 4.91 31.83 3.77"/><polygon class="cls-2" points="31.61 5.17 29.91 5.26 30.12 7.07 31.61 5.17"/><polygon class="cls-2" points="31.44 5.67 29.44 7.37 31.49 7.37 31.44 5.67"/><polygon class="cls-2" points="29.63 5.32 29.14 6.87 27.66 6.55 29.63 5.32"/><polygon class="cls-2" points="29.07 5.06 27.66 6.55 27.77 5.67 29.07 5.06"/><polygon class="cls-2" points="28.48 5.53 28.42 7.07 27.14 7.12 28.48 5.53"/><polygon class="cls-2" points="27.54 6 27.27 7.37 26.26 7.69 27.54 6"/><polygon class="cls-2" points="23.86 7.32 23.45 7.12 23.32 8.08 23.86 7.32"/><polygon class="cls-2" points="26.26 5.06 24.69 6.78 25.7 6.71 26.26 5.06"/><polygon class="cls-2" points="25.48 4.06 24.91 5.8 23.62 5.53 25.48 4.06"/><polygon class="cls-2" points="27.39 4.87 26.69 4.99 26.2 6.17 27.39 4.87"/><polygon class="cls-2" points="27.61 4.18 26.83 6.1 28.65 4.96 27.61 4.18"/><polygon class="cls-2" points="29.31 3.55 27.78 4.8 29.02 4.44 29.31 3.55"/><polygon class="cls-2" points="30.8 3.47 28.91 4.22 30.19 4.68 30.8 3.47"/><polygon class="cls-2" points="29.44 1.03 28.48 2.37 27.43 2 29.41 1.03 29.44 1.03"/><polygon class="cls-2" points="29.31 2.2 28.3 3.13 30.23 2.3 29.31 2.2"/><polygon class="cls-2" points="30 2.01 28.99 3.29 30.85 2.65 30 2.01"/><polygon class="cls-2" points="31.61 1.7 29.69 2.4 30.46 2.58 31.61 1.7"/><polygon class="cls-2" points="32.25 2.33 30.8 3.23 32.91 2.82 32.25 2.33"/><polygon class="cls-2" points="33.16 .4 32.25 1.43 31.07 .76 33.16 .4"/><polygon class="cls-2" points="34.01 1.93 32.18 2.01 33.03 2.44 34.01 1.93"/><polygon class="cls-2" points="34.47 2.61 31.96 3.2 34.38 3.45 34.47 2.61"/><polygon class="cls-2" points="34.37 1.76 35.25 2.24 35.45 2.35 36.51 1.73 34.37 1.76"/><polygon class="cls-2" points="34.77 2.84 35.95 2.84 35.21 2.3 34.77 2.84"/><polygon class="cls-2" points="35.26 2.19 36.09 2.61 37.15 2.35 35.26 2.19"/></g></g></svg>