<?xml version="1.0" encoding="UTF-8"?><svg id="a" xmlns="http://www.w3.org/2000/svg" viewBox="0 0 204.49 47.5"><g id="b"><path d="m23.52,42.68v3.39c0,.28-.23.51-.51.51H1.01c-.28,0-.51-.23-.51-.51v-2.85c0-.1.03-.2.09-.29l15.22-21.94c.23-.34,0-.8-.42-.8H1.11c-.28,0-.51-.23-.51-.51v-3.41c0-.28.23-.51.51-.51h21.41c.28,0,.51.23.51.51v2.74c0,.1-.03.2-.09.29l-15.21,22.07c-.23.34,0,.79.42.79h14.86c.28,0,.51.23.51.51h0Z" fill="#444545" stroke="#444545" stroke-miterlimit="10"/><path d="m60.33,17.04c1.7.84,2.99,2,3.88,3.49s1.33,3.18,1.33,5.09-.44,3.7-1.32,5.14-2.16,2.54-3.85,3.3-3.71,1.14-6.08,1.14h-5.84c-.28,0-.51.23-.51.51v10.37c0,.28-.23.51-.51.51h-4.47c-.28,0-.51-.23-.51-.51v-29.79c0-.28.23-.51.51-.51h11.32c2.33,0,4.34.42,6.04,1.26h0Zm-1.69,12.39c.94-.92,1.41-2.17,1.41-3.77,0-.99-.2-1.89-.61-2.72-.41-.82-1.04-1.49-1.9-1.99s-1.94-.75-3.24-.75h-5.84c-.28,0-.51.23-.51.51v9.59c0,.28.23.51.51.51h5.84c1.96,0,3.41-.46,4.35-1.38h0Z" fill="#444545" stroke="#444545" stroke-miterlimit="10"/><path d="m147.08,42.68v3.39c0,.28-.23.51-.51.51h-19.19c-.28,0-.51-.23-.51-.51v-29.79c0-.28.23-.51.51-.51h19.06c.28,0,.51.23.51.51v3.41c0,.28-.23.51-.51.51h-13.58c-.28,0-.51.23-.51.51v7.34c0,.28.23.51.51.51h11.57c.28,0,.51.23.51.51v3.3c0,.28-.23.51-.51.51h-11.57c-.28,0-.51.23-.51.51v8.29c0,.28.23.51.51.51h13.71c.28,0,.51.23.51.51v-.02Z" fill="#444545" stroke="#444545" stroke-miterlimit="10"/><path d="m173.96,33.14c.87,1.28,1.31,2.75,1.31,4.43,0,2.92-.94,5.15-2.81,6.7-1.88,1.54-4.51,2.32-7.91,2.32h-10.85c-.28,0-.51-.23-.51-.51v-29.79c0-.28.23-.51.51-.51h10.07c3.47,0,6.13.69,8,2.06s2.79,3.47,2.79,6.27c0,1.44-.38,2.72-1.15,3.85-.57.83-1.32,1.52-2.25,2.06-.36.21-.33.73.06.9,1.16.49,2.08,1.23,2.76,2.21h-.02Zm-15.29-12.43v7.51c0,.28.23.51.51.51h4.63c1.68,0,2.98-.37,3.9-1.12s1.39-1.8,1.39-3.15c0-1.49-.43-2.58-1.29-3.25s-2.21-1-4.04-1h-4.59c-.28,0-.51.23-.51.51h0Zm9.78,20.21c.91-.84,1.36-1.96,1.36-3.35,0-3.21-1.68-4.82-5.03-4.82h-5.61c-.28,0-.51.23-.51.51v8.42c0,.28.23.51.51.51h5.37c1.69,0,2.99-.42,3.9-1.26h.01Z" fill="#444545" stroke="#444545" stroke-miterlimit="10"/><path d="m184.48,29.63c-1.76-1.47-2.64-3.38-2.64-5.73,0-1.65.46-3.12,1.39-4.42.92-1.3,2.22-2.31,3.88-3.04s3.57-1.09,5.71-1.09,4.21.42,5.89,1.26,2.98,1.97,3.88,3.41c.81,1.28,1.26,2.69,1.34,4.22.02.29-.23.53-.51.53h-4.45c-.27,0-.48-.22-.5-.49-.09-1.31-.57-2.38-1.43-3.19-.97-.92-2.39-1.38-4.28-1.38-1.78,0-3.13.38-4.05,1.15s-1.39,1.77-1.39,3.01c0,1.1.52,2.03,1.57,2.79s2.69,1.47,4.93,2.12c2.34.69,4.26,1.48,5.74,2.37,1.49.89,2.6,1.94,3.33,3.15s1.1,2.63,1.1,4.25c0,1.72-.45,3.22-1.35,4.49-.9,1.27-2.18,2.25-3.84,2.93s-3.59,1.03-5.81,1.03c-2.06,0-4.02-.37-5.87-1.11s-3.36-1.85-4.5-3.33c-1.05-1.35-1.62-2.96-1.71-4.82,0-.29.23-.53.51-.53h4.47c.27,0,.48.22.5.49.1,1.6.7,2.81,1.79,3.62,1.21.9,2.81,1.34,4.81,1.34,1.78,0,3.14-.37,4.08-1.1.94-.73,1.42-1.72,1.42-2.96,0-.85-.18-1.55-.53-2.13s-.99-1.1-1.91-1.6c-.92-.49-2.27-1.01-4.05-1.54-3.24-1-5.75-2.24-7.51-3.7h-.01Z" fill="#444545" stroke="#444545" stroke-miterlimit="10"/></g><path d="m115.65,33.07l-2.05-3.42c-.1-.17-.35-.17-.45,0l-5.47,9.31c-.1.17-.35.17-.45,0l-5.43-9.07c-.1-.17-.34-.17-.44,0l-1.82,2.86c-.1.16-.34.16-.44,0l-1.82-2.86c-.1-.16-.34-.16-.44,0l-5.44,9.02c-.1.17-.35.17-.45,0l-5.48-9.26c-.1-.17-.35-.17-.45,0l-1.97,3.36c-.05.08-.05.18,0,.26l7.87,13.63c.1.17.35.17.45,0l7.71-13.14c.1-.17.35-.17.45,0l7.73,13.19c.1.17.35.17.45,0l7.94-13.62c.05-.08.05-.18,0-.26Z" fill="#fdb913" stroke-width="0"/><path d="m117.18,30.44l8.64-14.74c.1-.17-.02-.39-.22-.39l-10.91-.04c-.09,0-.17.05-.22.12l-6.79,10.94c-.1.16-.34.16-.44,0l-1.9-3.03c-.05-.08-.05-.18,0-.27l4.23-7.36c.1-.18-.03-.39-.23-.39l-6.54.12c-.09,0-.17.05-.22.13l-3.14,5.35c-.04.08-.05.17,0,.25l.92,1.88c.03.07.04.15,0,.22l-.93,2.13c-.03.08-.03.16.01.24l1.74,2.97c.2.33.68.34.88,0l.34-.54c.2-.33.69-.32.88.01l3.95,6.76c.1.17.35.17.45,0l8.54-14.78c.05-.08.14-.13.23-.13l1.82.04c.2,0,.32.21.22.39l-3.69,6.7c-.04.08-.04.18,0,.26l1.92,3.18c.1.17.35.17.45,0v-.02Z" fill="#444545" stroke-width="0"/><path d="m81.5,30.44l-8.64-14.74c-.1-.17.02-.39.22-.39l10.91-.04c.09,0,.17.05.22.12l6.79,10.94c.1.16.34.16.44,0l1.9-3.03c.05-.08.05-.18,0-.27l-4.23-7.36c-.1-.18.03-.39.23-.39l6.54.12c.09,0,.17.05.22.13l3.14,5.35c.04.08.05.17,0,.25l-.92,1.88c-.03.07-.04.15,0,.22l.93,2.13c.03.08.03.16-.01.24l-1.74,2.97c-.2.33-.68.34-.88,0l-.34-.54c-.2-.33-.69-.32-.88.01l-3.95,6.76c-.1.17-.35.17-.45,0l-8.54-14.78c-.05-.08-.14-.13-.23-.13l-1.82.04c-.2,0-.32.21-.22.39l3.69,6.7c.04.08.04.18,0,.26l-1.92,3.18c-.1.17-.35.17-.45,0v-.02Z" fill="#444545" stroke-width="0"/><g id="c"><path d="m38.92,25.34v-1.04c0-.14-.11-.25-.25-.25h-6.22v-.59h-1.44c-.14,0-.25.11-.25.25v2.37c0,.14.11.25.25.25h1.44v-.74h6.22c.14,0,.25-.11.25-.25Z" fill="#444545" stroke-width="0"/><path d="m38.92,31.35v-1.04c0-.14-.11-.25-.25-.25h-6.22v-.59h-1.44c-.14,0-.25.11-.25.25v2.37c0,.14.11.25.25.25h1.44v-.74h6.22c.14,0,.25-.11.25-.25Z" fill="#444545" stroke-width="0"/><path d="m38.92,37.28v-1.04c0-.14-.11-.25-.25-.25h-6.22v-.59h-1.44c-.14,0-.25.11-.25.25v2.37c0,.14.11.25.25.25h1.44v-.74h6.22c.14,0,.25-.11.25-.25Z" fill="#444545" stroke-width="0"/><path d="m38.92,43.39v-1.04c0-.14-.11-.25-.25-.25h-6.22v-.59h-1.44c-.14,0-.25.11-.25.25v2.37c0,.14.11.25.25.25h1.44v-.74h6.22c.14,0,.25-.11.25-.25Z" fill="#444545" stroke-width="0"/><path d="m36.93,26.5c0-.23-.19-.42-.42-.42h-2.25v.72h-6.15c-.23,0-.42.19-.42.42v1.47c0,.23.19.42.42.42h6.14v.52h2.25c.23,0,.42-.19.42-.42v-2.71h0Z" fill="#444545" stroke-width="0"/><path d="m36.93,32.54c0-.23-.19-.42-.42-.42h-2.25v.72h-6.15c-.23,0-.42.19-.42.42v1.47c0,.23.19.42.42.42h6.14v.52h2.25c.23,0,.42-.19.42-.42v-2.71h0Z" fill="#444545" stroke-width="0"/><path d="m36.93,38.52c0-.23-.19-.42-.42-.42h-2.25v.72h-6.15c-.23,0-.42.19-.42.42v1.47c0,.23.19.42.42.42h6.14v.52h2.25c.23,0,.42-.19.42-.42v-2.71h0Z" fill="#444545" stroke-width="0"/><path d="m36.87,45.5c0-.23-.19-.42-.42-.42h-2.25v.72h-6.15c-.23,0-.42.19-.42.42v.86h9.23v-1.57h0Z" fill="#444545" stroke-width="0"/><path d="m32.75,21.4c-1.1,0-2.14-.26-3.07-.71h-1.56c-.23,0-.42.19-.42.42v1.47c0,.23.19.42.42.42h6.14v.52h2.25c.23,0,.42-.19.42-.42v-2.71c0-.11-.04-.21-.11-.28-1.15.81-2.55,1.29-4.06,1.29h0Z" fill="#444545" stroke-width="0"/><g id="d"><polygon points="33.37 15.86 32.28 13.97 31.36 15.67 33.37 15.86" fill="#444545" stroke-width="0"/><polygon points="31.98 14.1 29.59 13.97 31.03 16.05 31.98 14.1" fill="#444545" stroke-width="0"/><polygon points="29.83 13.8 27.94 13.58 29.26 15.3 29.83 13.8" fill="#444545" stroke-width="0"/><polygon points="29.19 15.58 27.81 13.87 27.91 15.5 29.19 15.58" fill="#444545" stroke-width="0"/><polygon points="28.27 16.41 27.55 15.34 26.83 15.25 28.27 16.41" fill="#444545" stroke-width="0"/><polygon points="28.05 17.27 27.94 16.31 26.66 15.44 28.05 17.27" fill="#444545" stroke-width="0"/><polygon points="27.81 17.22 26.54 15.58 26.54 16.31 27.81 17.22" fill="#444545" stroke-width="0"/><polygon points="26.14 15.75 26.2 15.25 25.4 14.01 26.13 15.75 26.14 15.75" fill="#444545" stroke-width="0"/><polygon points="27.36 15.16 26.2 13.36 26.62 15.01 27.36 15.16" fill="#444545" stroke-width="0"/><polygon points="25.9 14.44 25.65 12.51 25.01 13.23 25.9 14.44" fill="#444545" stroke-width="0"/><polygon points="24.78 11.62 24.72 12.9 24.45 11.8 24.78 11.62" fill="#444545" stroke-width="0"/><polygon points="25.18 11.27 25.68 13.74 26.11 11.62 25.18 11.27" fill="#444545" stroke-width="0"/><polygon points="25.46 11.21 26.11 11.56 25.9 9.71 25.46 11.21" fill="#444545" stroke-width="0"/><polygon points="26.11 12.03 25.78 13.36 26.78 13.47 26.11 12.03" fill="#444545" stroke-width="0"/><polygon points="27.48 13.53 25.8 13.43 27.55 15.2 27.48 13.53" fill="#444545" stroke-width="0"/><polygon points="27.86 11.56 27.06 13.36 26.35 11.34 27.86 11.56" fill="#444545" stroke-width="0"/><polygon points="26.78 11.23 28.27 11.45 27.55 9.48 26.78 11.23" fill="#444545" stroke-width="0"/><polygon points="28.27 11.76 27.69 13.43 29.48 13.64 28.27 11.76" fill="#444545" stroke-width="0"/><polygon points="28.81 11.56 29.78 13.36 30.67 11.89 30.86 11.56 28.81 11.56" fill="#444545" stroke-width="0"/><polygon points="29.9 13.58 30.67 11.89 31.98 13.87 29.9 13.58" fill="#444545" stroke-width="0"/><polygon points="29.7 14.53 29.37 15.44 30.71 15.98 29.7 14.53" fill="#444545" stroke-width="0"/><polygon points="28.88 15.56 29.83 17.17 30.94 16.25 28.93 15.56 28.88 15.56" fill="#444545" stroke-width="0"/><polygon points="27.94 15.64 28.88 17.02 30.04 16.95 27.94 15.64" fill="#444545" stroke-width="0"/><polygon points="29.91 17.27 28.99 17.34 30.78 18.22 29.91 17.27" fill="#444545" stroke-width="0"/><polygon points="28.22 17.1 29.83 17.35 29.83 18.3 28.22 17.1" fill="#444545" stroke-width="0"/><polygon points="30.2 18.3 31.98 18.87 31.31 18.3 30.2 18.3" fill="#444545" stroke-width="0"/><polygon points="30.4 17.34 31.85 17.61 31.2 18.15 30.4 17.34" fill="#444545" stroke-width="0"/><polygon points="30.15 17.1 31.09 16.33 31.85 17.47 30.15 17.1" fill="#444545" stroke-width="0"/><polygon points="32.37 18.97 31.79 18.47 33.44 18.81 32.37 18.97" fill="#444545" stroke-width="0"/><polygon points="33.37 18.59 32.1 17.96 31.09 18.3 33.37 18.59" fill="#444545" stroke-width="0"/><polygon points="33.19 18.15 31.69 18.3 31.57 17.47 33.19 18.15" fill="#444545" stroke-width="0"/><polygon points="32.23 17.39 33.19 16.15 31.24 16.05 32.23 17.39" fill="#444545" stroke-width="0"/><polygon points="33.44 16.11 32.51 17.22 34.42 17.17 33.44 16.11" fill="#444545" stroke-width="0"/><polygon points="32.51 17.47 33.62 18.15 34.68 17.47 32.51 17.47" fill="#444545" stroke-width="0"/><polygon points="33.69 18.34 34.68 17.65 35.84 18 33.69 18.34" fill="#444545" stroke-width="0"/><polygon points="33.59 18.52 34.68 18.66 35.84 18.22 33.59 18.52" fill="#444545" stroke-width="0"/><polygon points="24.16 9.79 23.75 11.56 24.56 11.34 24.16 9.79" fill="#444545" stroke-width="0"/><polygon points="24.42 9.71 24.37 11.27 24.94 9.6 24.42 9.71" fill="#444545" stroke-width="0"/><polygon points="24.75 11.05 25.24 9.39 24.56 9.39 24.75 11.05" fill="#444545" stroke-width="0"/><polygon points="26.15 9.39 26.42 11.05 27.31 9.17 26.15 9.39" fill="#444545" stroke-width="0"/><polygon points="23.85 7.21 22.8 8.83 23.89 8.74 23.85 7.21" fill="#444545" stroke-width="0"/><polygon points="24.94 7.42 24.01 8.76 25.36 9 24.94 7.42" fill="#444545" stroke-width="0"/><polygon points="25.18 6.47 25.1 8.38 26.24 6.8 25.24 6.47 25.18 6.47" fill="#444545" stroke-width="0"/><polygon points="25.86 7.42 25.74 8.9 26.87 6.97 25.86 7.42" fill="#444545" stroke-width="0"/><polygon points="27.05 7.35 26.06 9 27.05 9 27.05 7.35" fill="#444545" stroke-width="0"/><polygon points="27.31 6.83 27.13 8.9 28.7 6.69 27.31 6.83" fill="#444545" stroke-width="0"/><polygon points="28.98 6.89 27.6 8.96 29.42 8.96 28.98 6.89" fill="#444545" stroke-width="0"/><polygon points="27.98 9.24 28.81 10.9 29.73 9.27 27.98 9.24" fill="#444545" stroke-width="0"/><polygon points="28.63 11.34 29.61 9.49 30.59 11.45 28.63 11.34 28.63 11.34" fill="#444545" stroke-width="0"/><polygon points="32.36 13.9 33.61 11.76 31.02 11.71 32.36 13.9" fill="#444545" stroke-width="0"/><polygon points="32.28 9.73 31.19 11.52 33.47 11.56 32.28 9.73" fill="#444545" stroke-width="0"/><polygon points="32.05 9.59 29.9 9.26 30.86 11.41 32.05 9.59" fill="#444545" stroke-width="0"/><polygon points="32.28 9.48 33.67 11.48 35.02 9.44 32.28 9.48" fill="#444545" stroke-width="0"/><polygon points="35.17 9.61 33.88 11.53 36.4 11.53 35.17 9.61" fill="#444545" stroke-width="0"/><polygon points="34.8 14.01 32.61 13.74 33.71 15.75 34.8 14.01" fill="#444545" stroke-width="0"/><polygon points="34.94 14.26 33.97 15.64 35.71 15.5 34.94 14.26" fill="#444545" stroke-width="0"/><polygon points="35.14 13.9 36.08 15.56 37.26 13.64 35.14 13.9" fill="#444545" stroke-width="0"/><polygon points="37.35 13.74 36.4 15.3 37.82 14.92 37.35 13.74" fill="#444545" stroke-width="0"/><polygon points="37.49 13.58 37.92 14.8 39.01 13.36 37.49 13.58" fill="#444545" stroke-width="0"/><polygon points="39.13 13.58 38.2 14.8 39.13 15.16 39.13 13.58" fill="#444545" stroke-width="0"/><path d="m39.43,13.26l-.06,1.63,1.19-1.88s-1.13.25-1.13.25Z" fill="#444545" stroke-width="0"/><polygon points="40.42 13.36 40.02 15.01 40.92 13 40.42 13.36" fill="#444545" stroke-width="0"/><polygon points="40.12 13.87 39.28 15.26 39.97 14.95 40.12 13.87" fill="#444545" stroke-width="0"/><polygon points="39.7 15.48 39.01 15.56 38.46 16.61 38.36 16.8 39.7 15.48" fill="#444545" stroke-width="0"/><polygon points="37.01 17.65 38.46 16.61 38.14 17.17 37.01 17.65" fill="#444545" stroke-width="0"/><polygon points="38.46 16.14 37.01 17.02 37.89 17.02 38.46 16.14" fill="#444545" stroke-width="0"/><polygon points="37.41 17.22 36.85 17.17 36.4 17.81 37.41 17.22" fill="#444545" stroke-width="0"/><polygon points="37.01 16.8 36.06 17.88 34.84 17.39 37.01 16.8" fill="#444545" stroke-width="0"/><polygon points="38.2 15.3 37.26 16.8 39.37 15.48 38.2 15.3" fill="#444545" stroke-width="0"/><polygon points="38.04 15.16 37.31 16.58 36.2 15.7 38.04 15.16" fill="#444545" stroke-width="0"/><polygon points="36.9 16.51 35.79 15.56 33.78 15.93 34.93 17.22 36.9 16.51" fill="#444545" stroke-width="0"/><polygon points="37.41 13.43 36.58 11.76 35.14 13.68 37.41 13.43" fill="#444545" stroke-width="0"/><polygon points="37.01 11.71 37.74 13.29 38.79 11.56 37.01 11.71" fill="#444545" stroke-width="0"/><polygon points="38.97 11.89 38.31 13 39.37 13 38.97 11.89" fill="#444545" stroke-width="0"/><polygon points="39.03 11.41 39.74 13 40.56 11.34 39.03 11.41" fill="#444545" stroke-width="0"/><polygon points="40.47 11.97 39.97 12.92 40.69 12.81 40.47 11.97" fill="#444545" stroke-width="0"/><polygon points="40.62 11.27 40.81 12.58 41.34 11.15 40.62 11.27" fill="#444545" stroke-width="0"/><polygon points="35.93 11.71 34.8 13.29 33.78 11.64 35.93 11.71" fill="#444545" stroke-width="0"/><polygon points="33.82 11.89 34.94 13.9 32.7 13.68 33.82 11.89" fill="#444545" stroke-width="0"/><polygon points="35.34 9.31 36.51 11.27 37.41 9.26 35.34 9.31" fill="#444545" stroke-width="0"/><polygon points="37.82 9.49 36.81 11.53 38.93 11.41 37.82 9.49" fill="#444545" stroke-width="0"/><polygon points="40.18 10.9 39.51 9.17 40.56 9.24 40.2 10.96 40.18 10.9" fill="#444545" stroke-width="0"/><polygon points="40.73 9.36 40.41 10.96 41.16 10.84 40.73 9.36" fill="#444545" stroke-width="0"/><polygon points="40.69 8.96 41.23 10.64 41.23 9.17 40.69 8.9 40.69 8.96" fill="#444545" stroke-width="0"/><polygon points="39.37 9.1 38.55 11.05 37.6 9.1 39.37 9.1" fill="#444545" stroke-width="0"/><polygon points="39.97 11.05 38.04 11.18 38.93 9.26 39.97 11.05" fill="#444545" stroke-width="0"/><polygon points="40.62 9.17 39.63 6.97 39.63 8.86 40.62 9.17" fill="#444545" stroke-width="0"/><polygon points="40.84 7.59 40.84 8.6 41.23 8.6 40.84 7.59" fill="#444545" stroke-width="0"/><polygon points="39.8 6.89 40.62 8.75 40.56 7.24 39.8 6.89" fill="#444545" stroke-width="0"/><polygon points="37.97 6.8 39.28 8.71 39.33 6.97 37.97 6.8" fill="#444545" stroke-width="0"/><polygon points="37.82 7.05 37.41 8.9 39.18 8.9 37.82 7.05" fill="#444545" stroke-width="0"/><polygon points="37.74 6.8 37.41 8.5 36.37 6.89 37.74 6.8" fill="#444545" stroke-width="0"/><polygon points="36.2 6.97 35.49 9.17 37.41 8.9 36.2 6.97" fill="#444545" stroke-width="0"/><polygon points="35.93 7.05 35.27 8.96 34.05 7.42 35.93 7.05" fill="#444545" stroke-width="0"/><polygon points="33.65 7.59 32.32 9.26 34.94 9.26 33.65 7.59" fill="#444545" stroke-width="0"/><polygon points="33.37 7.42 32.22 9 31.42 6.97 33.37 7.42" fill="#444545" stroke-width="0"/><polygon points="31.24 7.11 31.98 9.36 29.73 9 31.24 7.05 31.24 7.11" fill="#444545" stroke-width="0"/><polygon points="30.94 6.89 29.61 8.84 29.28 6.69 30.94 6.89" fill="#444545" stroke-width="0"/><polygon points="33.63 5.51 31.42 6.76 33.65 7.24 35.68 6.74 33.63 5.51" fill="#444545" stroke-width="0"/><polygon points="34.05 5.44 36.12 6.69 36 4.94 34.05 5.44" fill="#444545" stroke-width="0"/><polygon points="36.4 4.94 36.45 6.6 38.29 6.47 36.4 4.94" fill="#444545" stroke-width="0"/><polygon points="36.45 4.62 38.38 6.3 38.12 4.73 36.45 4.62" fill="#444545" stroke-width="0"/><polygon points="38.53 4.88 38.53 6.43 39.89 6.6 38.53 4.88" fill="#444545" stroke-width="0"/><polygon points="39.89 5.92 39.51 6.6 40.56 7.05 39.89 5.92" fill="#444545" stroke-width="0"/><polygon points="39.09 5.25 39.7 6.07 39.7 5.59 39.09 5.25" fill="#444545" stroke-width="0"/><polygon points="38.59 4.75 39.18 4.88 38.29 4.23 38.59 4.75" fill="#444545" stroke-width="0"/><polygon points="37.06 3.48 38.19 4.14 37.9 3.58 37.06 3.48" fill="#444545" stroke-width="0"/><polygon points="37.5 2.81 36.67 3.29 35.54 2.28 37.5 2.81" fill="#444545" stroke-width="0"/><polygon points="35.93 2.88 36.81 3.52 35.86 3.48 35.86 2.88 35.93 2.88" fill="#444545" stroke-width="0"/><polygon points="36.45 4.23 38.1 4.37 36.4 3.23 36.45 4.23" fill="#444545" stroke-width="0"/><polygon points="36.12 4.32 36.12 3.42 34.1 3.52 36.12 4.32" fill="#444545" stroke-width="0"/><polygon points="35.93 4.65 33.78 3.64 33.84 4.88 35.93 4.65" fill="#444545" stroke-width="0"/><polygon points="33.55 5.08 31.36 4.75 31.26 6.37 33.55 5.08" fill="#444545" stroke-width="0"/><polygon points="34.15 2.52 34.15 3.2 35.93 3.08 34.15 2.52" fill="#444545" stroke-width="0"/><polygon points="33.55 3.2 31.53 3.93 31.69 2.88 33.55 3.2" fill="#444545" stroke-width="0"/><polygon points="33.47 3.4 33.47 4.75 31.34 4.32 33.47 3.4" fill="#444545" stroke-width="0"/><polygon points="31.34 3.16 31.42 4.32 29.42 4.23 31.34 3.16" fill="#444545" stroke-width="0"/><polygon points="31.13 4.47 29.54 4.56 29.73 6.25 31.13 4.47" fill="#444545" stroke-width="0"/><polygon points="30.97 4.94 29.09 6.54 31.02 6.54 30.97 4.94" fill="#444545" stroke-width="0"/><polygon points="29.28 4.62 28.81 6.07 27.42 5.77 29.28 4.62" fill="#444545" stroke-width="0"/><polygon points="28.75 4.37 27.42 5.77 27.52 4.94 28.75 4.37" fill="#444545" stroke-width="0"/><polygon points="28.19 4.81 28.14 6.25 26.94 6.3 28.19 4.81" fill="#444545" stroke-width="0"/><polygon points="27.31 5.25 27.05 6.54 26.11 6.84 27.31 5.25" fill="#444545" stroke-width="0"/><polygon points="23.85 6.5 23.47 6.3 23.35 7.21 23.85 6.5" fill="#444545" stroke-width="0"/><polygon points="26.11 4.37 24.63 5.99 25.58 5.92 26.11 4.37" fill="#444545" stroke-width="0"/><polygon points="25.37 3.43 24.84 5.07 23.63 4.81 25.37 3.43" fill="#444545" stroke-width="0"/><polygon points="27.17 4.19 26.51 4.31 26.06 5.41 27.17 4.19" fill="#444545" stroke-width="0"/><polygon points="27.38 3.55 26.64 5.34 28.35 4.27 27.38 3.55" fill="#444545" stroke-width="0"/><polygon points="28.97 2.95 27.54 4.12 28.7 3.78 28.97 2.95" fill="#444545" stroke-width="0"/><polygon points="30.37 2.88 28.6 3.58 29.8 4.01 30.37 2.88" fill="#444545" stroke-width="0"/><polygon points="29.09 .59 28.19 1.84 27.2 1.49 29.07 .59 29.09 .59" fill="#444545" stroke-width="0"/><polygon points="28.97 1.69 28.02 2.56 29.84 1.78 28.97 1.69" fill="#444545" stroke-width="0"/><polygon points="29.62 1.5 28.67 2.71 30.42 2.11 29.62 1.5" fill="#444545" stroke-width="0"/><polygon points="31.13 1.22 29.33 1.87 30.06 2.04 31.13 1.22" fill="#444545" stroke-width="0"/><polygon points="31.73 1.8 30.37 2.66 32.36 2.26 31.73 1.8" fill="#444545" stroke-width="0"/><polygon points="32.59 0 31.73 .96 30.62 .34 32.59 0" fill="#444545" stroke-width="0"/><polygon points="33.39 1.43 31.67 1.5 32.47 1.91 33.39 1.43" fill="#444545" stroke-width="0"/><polygon points="33.82 2.07 31.46 2.62 33.73 2.86 33.82 2.07" fill="#444545" stroke-width="0"/><polygon points="33.72 1.27 34.55 1.72 34.73 1.83 35.73 1.24 33.72 1.27" fill="#444545" stroke-width="0"/><polygon points="34.1 2.28 35.21 2.28 34.51 1.77 34.1 2.28" fill="#444545" stroke-width="0"/><polygon points="34.56 1.67 35.34 2.07 36.33 1.83 34.56 1.67" fill="#444545" stroke-width="0"/></g></g></svg>